# xmcd CD database file generated by LOLA_Freedb v0.9beta0
#
# Track frame offsets:
#      150
#      14319
#      27555
#      40311
#      54714
#      68004
#      81858
#      95165
#      107724
#      122644
#      137222
#      150832
#      165420
#      177373
#      191320
#      204974
#      218049
#      229701
#      243419
#      257148
#      269814
#      283470
#      296533
#
# Disc length: 4138 seconds
#
# Revision: 0
# Processed by: cddbd v1.5.2PL0 Copyright (c) Steve Scherf et al.
# Submitted via: LOLA_Freedb v0.9beta0
#
DISCID=52102817
DTITLE=alberta hunter - complete recorded works 2
DYEAR=1996
DGENRE=
TTITLE0=alberta hunter - someone else will take your place
TTITLE1=
TTITLE2=
TTITLE3=
TTITLE4=
TTITLE5=
TTITLE6=
TTITLE7=
TTITLE8=
TTITLE9=
TTITLE10=
TTITLE11=
TTITLE12=
TTITLE13=
TTITLE14=
TTITLE15=
TTITLE16=
TTITLE17=
TTITLE18=
TTITLE19=
TTITLE20=
TTITLE21=
TTITLE22=
EXTD=
EXTT0=
EXTT1=
EXTT2=
EXTT3=
EXTT4=
EXTT5=
EXTT6=
EXTT7=
EXTT8=
EXTT9=
EXTT10=
EXTT11=
EXTT12=
EXTT13=
EXTT14=
EXTT15=
EXTT16=
EXTT17=
EXTT18=
EXTT19=
EXTT20=
EXTT21=
EXTT22=
PLAYORDER=
